<svg xmlns="http://www.w3.org/2000/svg" viewBox="-25.75 -454 494 494">
  <path d="M163.25-178L163.25-196L267.75-196Q293.50-196 311.38-213.38Q329.25-230.75 329.25-262.50L329.25-262.50Q329.25-286.25 310.50-305.13Q291.75-324 267.75-324L267.75-324L113.25-324L113.25 0L95.25 0L95.25-342L267.75-342Q299.25-342 323.25-317.75Q347.25-293.50 347.25-262.50L347.25-262.50Q347.25-224.25 324-201.13Q300.75-178 267.75-178L267.75-178L163.25-178ZM163.25-142L163.25-160L267.75-160Q293.75-160 315.88-172.63Q338-185.25 351.63-209Q365.25-232.75 365.25-262.50L365.25-262.50Q365.25-301 335.88-330.50Q306.50-360 267.75-360L267.75-360L77.25-360L77.25 0L59.25 0L59.25-378L267.75-378Q298-378 324.75-362Q351.50-346 367.38-319.25Q383.25-292.50 383.25-262.50L383.25-262.50Q383.25-228.50 367.25-200.63Q351.25-172.75 324.88-157.38Q298.50-142 267.75-142L267.75-142L163.25-142ZM163.25-106L163.25-124L267.75-124Q294.50-124 319-134.63Q343.50-145.25 361.63-163.38Q379.75-181.50 390.50-207.38Q401.25-233.25 401.25-262.50L401.25-262.50Q401.25-297.50 383-328.38Q364.75-359.25 333.88-377.63Q303-396 267.75-396L267.75-396L41.25-396L41.25 0L23.25 0L23.25-414L267.75-414Q307.75-414 342.75-393.13Q377.75-372.25 398.50-337.25Q419.25-302.25 419.25-262.50L419.25-262.50Q419.25-227 407-197.13Q394.75-167.25 374-147.50Q353.25-127.75 325.75-116.88Q298.25-106 267.75-106L267.75-106L163.25-106ZM149.25-288L149.25 0L131.25 0L131.25-306L267.75-306Q285.50-306 298.38-293Q311.25-280 311.25-262.50L311.25-262.50Q311.25-214 267.75-214L267.75-214L163.25-214L163.25-232L267.75-232Q279.75-232 286.50-238.75Q293.25-245.50 293.25-262.50L293.25-262.50Q293.25-273.50 285.88-280.75Q278.50-288 267.75-288L267.75-288L149.25-288Z" fill="#c23024"/>
</svg>
